<?xml version="1.0" encoding="UTF-8" standalone="no"?>
<!-- Created with Inkscape (http://www.inkscape.org/) -->

<svg
   xmlns:dc="http://purl.org/dc/elements/1.1/"
   xmlns:cc="http://creativecommons.org/ns#"
   xmlns:rdf="http://www.w3.org/1999/02/22-rdf-syntax-ns#"
   xmlns:svg="http://www.w3.org/2000/svg"
   xmlns="http://www.w3.org/2000/svg"
   xmlns:sodipodi="http://sodipodi.sourceforge.net/DTD/sodipodi-0.dtd"
   xmlns:inkscape="http://www.inkscape.org/namespaces/inkscape"
   id="svg4167"
   version="1.1"
   inkscape:version="0.91 r13725"
   width="312.5"
   height="312.5"
   viewBox="0 0 312.5 312.5"
   sodipodi:docname="c_blanc.png">
  <metadata
     id="metadata4173">
    <rdf:RDF>
      <cc:Work
         rdf:about="">
        <dc:format>image/svg+xml</dc:format>
        <dc:type
           rdf:resource="http://purl.org/dc/dcmitype/StillImage" />
        <dc:title></dc:title>
      </cc:Work>
    </rdf:RDF>
  </metadata>
  <defs
     id="defs4171" />
  <sodipodi:namedview
     pagecolor="#ffffff"
     bordercolor="#666666"
     borderopacity="1"
     objecttolerance="10"
     gridtolerance="10"
     guidetolerance="10"
     inkscape:pageopacity="0"
     inkscape:pageshadow="2"
     inkscape:window-width="1920"
     inkscape:window-height="1017"
     id="namedview4169"
     showgrid="false"
     inkscape:zoom="1.5104"
     inkscape:cx="199.61375"
     inkscape:cy="149.15341"
     inkscape:window-x="-8"
     inkscape:window-y="-8"
     inkscape:window-maximized="1"
     inkscape:current-layer="svg4167" />
  <path
     style="fill:#fefefe"
     d="m 173.2926,308.01693 c -22.10333,-5.35006 -40.51726,-23.69066 -46.37861,-46.19387 -2.80837,-10.78209 -2.80837,-100.36403 0,-111.14612 8.63316,-33.14492 39.25506,-52.128661 77.67494,-48.15379 9.32608,0.96487 13.39478,2.12398 22.18257,6.3195 13.03061,6.22115 20.33422,13.13729 25.98241,24.60401 3.93909,7.997 4.12109,9.00269 4.12109,22.77242 l 0,14.40592 -3.75,0.34096 c -2.0625,0.18753 -10.1857,-1.49997 -18.05156,-3.75 l -14.30158,-4.09096 -1.54429,-6.08595 c -2.62638,-10.35045 -10.1342,-15.76401 -21.88742,-15.78208 -9.77709,-0.015 -22.6845,8.01239 -27.69981,17.22718 l -3.39034,6.22917 0.0112,41.70584 0.0113,41.70584 3.6607,6.38242 c 3.9506,6.88784 12.83162,13.60824 19.83409,15.00873 7.33978,1.46796 19.62548,-5.50404 24.57173,-13.94418 2.89589,-4.94145 3.16075,-6.6273 3.1689,-20.16956 0.005,-8.12757 0.36348,-18.53144 0.79687,-23.11967 l 0.78797,-8.34228 6.24483,-2.59522 c 9.47586,-3.93799 12.44985,-3.484 17.80011,2.71726 9.69376,11.23561 14.36134,25.26751 14.36134,43.17376 0,24.88034 -12.17725,44.957 -33.96457,55.99746 -12.89131,6.53253 -34.5119,8.59084 -50.24283,4.7832 z"
     id="path4717"
     inkscape:connector-curvature="0" />
</svg>
