<?xml version="1.0" encoding="UTF-8" standalone="no"?>
<!-- Created with Inkscape (http://www.inkscape.org/) -->

<svg
   xmlns:dc="http://purl.org/dc/elements/1.1/"
   xmlns:cc="http://creativecommons.org/ns#"
   xmlns:rdf="http://www.w3.org/1999/02/22-rdf-syntax-ns#"
   xmlns:svg="http://www.w3.org/2000/svg"
   xmlns="http://www.w3.org/2000/svg"
   xmlns:sodipodi="http://sodipodi.sourceforge.net/DTD/sodipodi-0.dtd"
   xmlns:inkscape="http://www.inkscape.org/namespaces/inkscape"
   id="svg4136"
   version="1.1"
   inkscape:version="0.91 r13725"
   width="312.5"
   height="312.5"
   viewBox="0 0 312.5 312.5"
   sodipodi:docname="l_blanc.svg">
  <metadata
     id="metadata4142">
    <rdf:RDF>
      <cc:Work
         rdf:about="">
        <dc:format>image/svg+xml</dc:format>
        <dc:type
           rdf:resource="http://purl.org/dc/dcmitype/StillImage" />
        <dc:title></dc:title>
      </cc:Work>
    </rdf:RDF>
  </metadata>
  <defs
     id="defs4140" />
  <sodipodi:namedview
     pagecolor="#ffffff"
     bordercolor="#666666"
     borderopacity="1"
     objecttolerance="10"
     gridtolerance="10"
     guidetolerance="10"
     inkscape:pageopacity="0"
     inkscape:pageshadow="2"
     inkscape:window-width="1920"
     inkscape:window-height="1017"
     id="namedview4138"
     showgrid="false"
     inkscape:zoom="2.72"
     inkscape:cx="156.25"
     inkscape:cy="170.95588"
     inkscape:window-x="-8"
     inkscape:window-y="-8"
     inkscape:window-maximized="1"
     inkscape:current-layer="svg4136" />
  <path
     style="fill:#fefefe"
     d="M 83.454232,209.95899 C 73.922825,208.35406 65.671775,205.18367 57.82179,200.10999 49.244276,194.56607 43.733799,188.30659 39.017734,178.75 35.834471,172.29948 35.625,170.83313 35.625,155 c 0,-15.94838 0.197279,-17.3021 3.592706,-24.65296 4.319255,-9.3509 13.44862,-18.42903 23.435308,-23.3038 12.895909,-6.29483 39.912916,-6.6797 54.876186,-0.78173 3.47234,1.36867 6.52846,2.48849 6.79137,2.48849 0.26291,0 0.66396,-13.10963 0.89123,-29.132511 l 0.4132,-29.13251 4.86462,-9.837718 c 8.51684,-17.223577 24.25002,-30.310648 42.17465,-35.0814657 7.79337,-2.0742787 29.16378,-2.3415659 37.30097,-0.4665363 15.8834,3.6599659 32.65301,16.240376 39.9848,29.996225 5.56605,10.442968 7.52097,18.545616 7.51665,31.154516 -0.006,18.29891 -4.1004,30.39693 -14.69983,43.4375 -3.77351,4.64259 -4.94761,5.3125 -9.31077,5.3125 -2.97264,0 -7.33717,-1.2757 -10.78693,-3.1529 l -5.79416,-3.15291 0,-23.409593 c 0,-22.309575 -0.136,-23.626529 -2.89411,-28.026145 -3.45804,-5.516122 -12.68278,-11.343928 -19.60589,-12.386198 -11.5413,-1.737534 -22.94816,6.866705 -25.65691,19.353088 -0.76358,3.519812 -1.77189,24.843426 -2.2407,47.385808 l -0.85239,40.98615 5,4.82667 c 9.42229,9.09565 24.31472,14.70403 33.52753,12.6262 2.61888,-0.59065 6.86428,-2.53107 9.43422,-4.31205 3.502,-2.42688 6.22159,-3.23423 10.85544,-3.2226 5.5062,0.0139 25.9677,4.79518 29.27926,6.84184 2.28115,1.40983 1.35551,8.74734 -1.93699,15.35453 -4.48062,8.99143 -14.44417,17.58608 -25.6931,22.16311 -8.5493,3.47859 -10.30202,3.74234 -24.21636,3.64414 -21.48518,-0.15163 -33.69674,-4.7428 -47.08783,-17.70358 l -5.83781,-5.65022 -6.55114,6.44861 c -7.50313,7.38573 -21.03793,14.53918 -31.00633,16.38756 -7.70249,1.42824 -19.308014,1.41058 -27.937658,-0.0425 z M 101.17818,167.42591 C 107.76872,164.43612 117.5,156.73501 117.5,154.5092 117.5,149.60845 103.12122,142.32277 93.274632,142.23429 82.97793,142.14176 73.75,148.60684 73.75,155.91321 c 0,11.46499 14.301145,17.46775 27.42818,11.5127 z"
     id="path4150"
     inkscape:connector-curvature="0" />
</svg>
