<?xml version="1.0" encoding="UTF-8" standalone="no"?>
<!-- Created with Inkscape (http://www.inkscape.org/) -->

<svg
   xmlns:dc="http://purl.org/dc/elements/1.1/"
   xmlns:cc="http://creativecommons.org/ns#"
   xmlns:rdf="http://www.w3.org/1999/02/22-rdf-syntax-ns#"
   xmlns:svg="http://www.w3.org/2000/svg"
   xmlns="http://www.w3.org/2000/svg"
   xmlns:sodipodi="http://sodipodi.sourceforge.net/DTD/sodipodi-0.dtd"
   xmlns:inkscape="http://www.inkscape.org/namespaces/inkscape"
   width="210mm"
   height="297mm"
   viewBox="0 0 744.09448819 1052.3622047"
   id="svg2"
   version="1.1"
   inkscape:version="0.91 r13725"
   sodipodi:docname="logo_transparent.svg">
  <defs
     id="defs4" />
  <sodipodi:namedview
     id="base"
     pagecolor="#ffffff"
     bordercolor="#666666"
     borderopacity="1.0"
     inkscape:pageopacity="0.0"
     inkscape:pageshadow="2"
     inkscape:zoom="0.35"
     inkscape:cx="748.18783"
     inkscape:cy="504.90065"
     inkscape:document-units="px"
     inkscape:current-layer="layer1"
     showgrid="false"
     inkscape:window-width="1920"
     inkscape:window-height="1017"
     inkscape:window-x="-8"
     inkscape:window-y="-8"
     inkscape:window-maximized="1" />
  <metadata
     id="metadata7">
    <rdf:RDF>
      <cc:Work
         rdf:about="">
        <dc:format>image/svg+xml</dc:format>
        <dc:type
           rdf:resource="http://purl.org/dc/dcmitype/StillImage" />
        <dc:title></dc:title>
      </cc:Work>
    </rdf:RDF>
  </metadata>
  <g
     inkscape:label="Calque 1"
     inkscape:groupmode="layer"
     id="layer1">
    <g
       id="g4149"
       transform="translate(104.28571,-12.857143)">
      <path
         style="fill:#fefefe"
         d="m 294.79211,471.04177 c -22.10333,-5.35005 -40.51726,-23.69065 -46.37861,-46.19387 -1.39854,-5.36938 -1.91399,-13.84186 -1.91399,-31.46069 0,-13.26179 -0.21053,-24.11237 -0.46784,-24.11237 -0.25731,0 -2.92919,0.94043 -5.9375,2.08984 -8.65761,3.30787 -32.93876,3.02999 -44.27157,-0.50666 -16.50562,-5.15094 -28.28262,-14.85238 -35.30536,-29.08318 -3.18326,-6.45052 -3.39273,-7.91687 -3.39273,-23.75 0,-15.94838 0.19728,-17.3021 3.59271,-24.65296 4.31925,-9.3509 13.44862,-18.42903 23.4353,-23.3038 12.89591,-6.29483 39.91292,-6.6797 54.87618,-0.78173 3.47235,1.36867 6.52847,2.48849 6.79138,2.48849 0.26291,0 0.66396,-13.10963 0.89123,-29.13251 l 0.4132,-29.13251 4.86462,-9.83772 c 8.51684,-17.22358 24.25002,-30.31065 42.17465,-35.08146 7.79337,-2.07428 29.16378,-2.34157 37.30097,-0.46654 15.8834,3.65996 32.65301,16.24038 39.9848,29.99622 5.56605,10.44297 7.52097,18.54562 7.51665,31.15452 -0.006,18.25734 -4.10429,30.40069 -14.63025,43.3526 l -4.24845,5.22759 5.07263,5.22701 c 2.78995,2.87485 6.89967,8.93822 9.1327,13.47416 3.67633,7.46768 4.10404,9.532 4.52535,21.84093 0.3051,8.91401 -0.0139,14.07295 -0.9267,14.98574 -0.76558,0.76558 -1.40432,2.82634 -1.41942,4.57947 -0.0425,4.94199 -4.2638,13.09945 -9.99725,19.31951 l -5.21375,5.65625 4.3435,5.35588 c 9.20835,11.3546 13.39495,24.47145 13.39495,41.96712 0,24.88034 -12.17725,44.957 -33.96456,55.99746 -12.89131,6.53253 -34.5119,8.59084 -50.24284,4.7832 z m 25.08609,-39.53968 c 7.25634,-3.16035 12.90122,-7.68389 15.82665,-12.68269 2.79298,-4.7725 3.0597,-6.70572 3.47251,-25.16956 l 0.44715,-20 -15,-0.0639 c -15.1836,-0.0646 -22.13693,-1.33351 -31.17229,-5.68859 -2.70726,-1.30488 -5.09789,-2.37253 -5.3125,-2.37253 -0.21461,0 -0.39021,10.1895 -0.39021,22.64334 0,22.26102 0.0573,22.74851 3.39034,28.87251 1.97988,3.63771 5.5942,7.74546 8.68785,9.87395 9.10048,6.2613 13.75966,7.32729 20.0505,4.58745 z m 10.99631,-100.23223 c 10.80359,-6.16135 10.77728,-6.13303 9.99099,-10.74502 -1.50995,-8.8566 -8.8472,-15.41666 -17.24312,-15.41666 -7.25721,0 -16.17384,4.42916 -24.26564,12.05347 l -6.51778,6.14124 8.5891,4.23137 c 13.42381,6.61317 22.40336,7.75232 29.44645,3.7356 z m -107.23336,-1.30348 c 3.58416,-1.66871 9.1583,-5.67569 12.38699,-8.90438 l 5.87035,-5.87035 -10.03339,-4.93455 c -15.19717,-7.47417 -26.94913,-6.68402 -34.00522,2.28634 -3.16414,4.02255 -3.3223,8.26546 -0.48704,13.06517 4.53283,7.67348 15.3075,9.46094 26.26831,4.35777 z m 82.61555,-64.4071 c 5.24298,-0.74359 12.61922,-0.75651 19.6187,-0.0344 6.18683,0.63831 11.69476,0.67925 12.28272,0.0913 0.58628,-0.58629 0.8602,-9.98732 0.6087,-20.89118 -0.5306,-23.00464 -1.79741,-26.43225 -12.03642,-32.56676 -11.56085,-6.92648 -22.88887,-5.60233 -30.76214,3.59581 -5.4489,6.36581 -6.6226,11.90667 -7.53465,35.56983 l -0.7294,18.9241 5.07526,-1.74857 c 2.7914,-0.96172 8.85615,-2.2848 13.47723,-2.94019 z"
         id="path4159"
         inkscape:connector-curvature="0" />
      <path
         style="fill:#fefefd"
         d="m 304.62451,468.02484 c -0.4249,-0.6875 0.41885,-1.25 1.875,-1.25 1.45615,0 2.2999,0.5625 1.875,1.25 -0.4249,0.6875 -1.26865,1.25 -1.875,1.25 -0.60635,0 -1.4501,-0.5625 -1.875,-1.25 z m 13.75,0 c -0.4249,-0.6875 0.41885,-1.25 1.875,-1.25 1.45615,0 2.2999,0.5625 1.875,1.25 -0.4249,0.6875 -1.26865,1.25 -1.875,1.25 -0.60635,0 -1.4501,-0.5625 -1.875,-1.25 z m -19.60938,-2.10389 c 0.90234,-0.36108 1.98047,-0.31668 2.39584,0.0986 0.41537,0.41536 -0.32292,0.7108 -1.64062,0.65652 -1.45619,-0.06 -1.75238,-0.35617 -0.75522,-0.7552 z m 27.5,0 c 0.90234,-0.36108 1.98047,-0.31668 2.39584,0.0986 0.41537,0.41536 -0.32292,0.7108 -1.64062,0.65652 -1.45619,-0.06 -1.75238,-0.35617 -0.75522,-0.7552 z m -42.96225,-3.41891 c -1.33343,-0.97504 -2.02148,-2.17575 -1.52898,-2.66825 1.09651,-1.09653 8.47561,1.81372 8.47561,3.3427 0,1.70691 -4.25487,1.2938 -6.94663,-0.67445 z m 53.19663,0.75431 c 0,-1.31161 8.84402,-5.55415 9.73042,-4.66775 1.3126,1.3126 -3.91706,5.68624 -6.79916,5.68624 -1.61219,0 -2.93126,-0.45831 -2.93126,-1.01849 z m 17.5,-11.19612 c 0,-1.79426 4.91162,-5.79043 5.90095,-4.8011 0.4871,0.48708 0.28273,1.84301 -0.45414,3.01316 -1.46386,2.3246 -5.44681,3.63202 -5.44681,1.78794 z m -85.6764,-1.61855 c -0.45316,-0.73324 -0.52379,-1.63331 -0.15694,-2.00018 0.8954,-0.89538 3.33334,0.68229 3.33334,2.15711 0,1.59747 -2.15801,1.49084 -3.1764,-0.15693 z m -6.8236,-8.66684 c 0,-0.6875 0.5625,-1.25 1.25,-1.25 0.6875,0 1.25,0.5625 1.25,1.25 0,0.6875 -0.5625,1.25 -1.25,1.25 -0.6875,0 -1.25,-0.5625 -1.25,-1.25 z m 103.95834,-3.4792 c 0.22916,-0.53855 1.54166,-3.6302 2.91666,-6.87031 1.375,-3.24012 2.92187,-5.89323 3.4375,-5.8958 1.26107,-0.006 1.18315,2.05124 -0.178,4.69977 -0.61353,1.1938 -1.72646,3.71742 -2.4732,5.60804 -0.74674,1.89063 -1.97914,3.4375 -2.73866,3.4375 -0.75954,0 -1.19348,-0.44064 -0.9643,-0.9792 z m -110.20834,-7.1458 c 0,-1.03125 0.5625,-1.875 1.25,-1.875 0.6875,0 1.25,0.84375 1.25,1.875 0,1.03125 -0.5625,1.875 -1.25,1.875 -0.6875,0 -1.25,-0.84375 -1.25,-1.875 z m -2.46502,-7.40801 c -1.57948,-4.15433 -1.64976,-6.96699 -0.17409,-6.96699 1.25837,0 3.16106,8.64473 2.12969,9.67609 -0.36885,0.36885 -1.24887,-0.85025 -1.9556,-2.7091 z m 89.98416,-22.20572 c -0.0112,-11.74891 0.4821,-19.92351 1.23086,-20.38627 1.65105,-1.0204 1.65105,35.57019 0,38.125 -0.81087,1.25474 -1.21805,-4.61335 -1.23086,-17.73873 z m 29.98086,16.48873 c 0,-2.33334 0.33334,-2.66666 1.5,-1.5 1.16666,1.16666 1.16666,1.83334 0,3 -1.16666,1.16666 -1.5,0.83334 -1.5,-1.5 z m -121.867,-6.22477 c -0.432,-1.36113 -0.20576,-3.47051 0.50276,-4.6875 1.05118,-1.80557 1.29521,-1.35018 1.32623,2.47477 0.042,5.18112 -0.62914,5.99309 -1.82899,2.21273 z m 121.867,-10.02523 c 0,-2.33334 0.33334,-2.66666 1.5,-1.5 1.16666,1.16666 1.16666,1.83334 0,3 -1.16666,1.16666 -1.5,0.83334 -1.5,-1.5 z M 202.27843,370.40805 c -5.26006,-1.25914 -17.02892,-8.32745 -17.02892,-10.22746 0,-0.65055 0.97453,-0.74459 2.1875,-0.21108 6.91848,3.043 18.92575,6.74526 21.96665,6.77306 2.67784,0.0245 3.42859,0.55995 3.11223,2.21977 -0.49417,2.59284 -3.60825,3.0326 -10.23746,1.44571 z m 26.81672,-0.28757 c -1.98066,-1.98067 -1.64121,-3.34163 0.84186,-3.37532 1.20312,-0.0163 5.53318,-1.40501 9.62235,-3.08598 4.08916,-1.68097 7.71362,-2.77753 8.05436,-2.43679 0.34074,0.34072 -1.21875,2.29851 -3.46552,4.35062 -4.58018,4.18334 -12.90291,6.6976 -15.05305,4.54747 z m 79.92074,0.74585 c -1.70975,-0.32614 -4.60909,-1.66139 -6.44297,-2.96724 -1.83389,-1.30584 -4.7072,-2.37425 -6.38513,-2.37425 -3.12301,0 -7.18828,-3.41358 -7.18828,-6.03592 0,-1.96573 -0.0757,-1.98491 8.865,2.24341 4.31171,2.03911 10.2966,4.07595 13.29976,4.5263 4.11102,0.61648 5.36405,1.31842 5.0709,2.84066 -0.42387,2.20101 -2.40372,2.68561 -7.21928,1.76704 z m 12.48362,-0.96649 c -1.3361,-1.6099 -0.89426,-1.875 3.125,-1.875 4.01926,0 4.4611,0.2651 3.125,1.875 -0.85586,1.03125 -2.26211,1.875 -3.125,1.875 -0.86289,0 -2.26914,-0.84375 -3.125,-1.875 z m 10.83334,1.04166 c -1.99039,-1.99039 -0.46929,-3.69582 4.47916,-5.02199 8.49131,-2.27563 14.6875,-4.68051 14.6875,-5.70053 0,-0.51928 0.48849,-0.94414 1.08552,-0.94414 1.63243,0 11.73018,-10.47465 14.22698,-14.758 3.74415,-6.42323 3.10603,-7.14834 -9.18566,-10.43781 -8.78167,-2.35013 -10.98906,-3.36107 -9.6875,-4.43665 1.24761,-1.03102 2.94277,-0.95982 6.52311,0.27397 2.74142,0.9447 5.94279,1.2581 7.3885,0.72329 1.6254,-0.60128 4.2924,-0.10237 7.35006,1.37492 4.1735,2.01643 4.79899,2.87407 4.79899,6.58022 0,3.08686 -0.65375,4.46908 -2.3716,5.01431 -1.51649,0.48131 -2.16121,1.55726 -1.7881,2.98405 0.32093,1.22724 -0.29935,2.96405 -1.3784,3.85957 -1.07904,0.89553 -1.9619,2.30507 -1.9619,3.13229 0,2.03404 -5.34988,6.93776 -7.58056,6.94838 -0.98694,0.005 -3.12323,1.95981 -4.7473,4.3447 -2.97407,4.36728 -9.13491,6.79192 -13.2477,5.2137 -1.0144,-0.38927 -2.17684,-0.16983 -2.58318,0.48765 -0.84572,1.36841 -4.76537,1.60464 -6.00792,0.36207 z m 25.41666,-0.41666 c 0,-0.6875 0.5625,-1.25 1.25,-1.25 0.6875,0 1.25,0.5625 1.25,1.25 0,0.6875 -0.5625,1.25 -1.25,1.25 -0.6875,0 -1.25,-0.5625 -1.25,-1.25 z m -141.875,-1.25 c -0.46066,-0.74535 1.05328,-1.25 3.75,-1.25 2.69672,0 4.21065,0.50465 3.75,1.25 -0.4249,0.6875 -2.1124,1.25 -3.75,1.25 -1.6376,0 -3.3251,-0.5625 -3.75,-1.25 z m 33.125,-9.375 c 0,-1.04166 1.11111,-1.875 2.5,-1.875 1.38889,0 2.5,-0.83334 2.5,-1.875 0,-1.03125 0.84375,-1.875 1.875,-1.875 1.03125,0 1.875,0.84375 1.875,1.875 0,1.03125 -0.78358,1.875 -1.74126,1.875 -0.9577,0 -2.06504,0.84375 -2.46078,1.875 -0.39572,1.03125 -1.5809,1.875 -2.63374,1.875 -1.05282,0 -1.91422,-0.84375 -1.91422,-1.875 z m -68.75,-1.25 c 0,-1.03125 0.84375,-1.875 1.875,-1.875 1.03125,0 1.875,0.84375 1.875,1.875 0,1.03125 -0.84375,1.875 -1.875,1.875 -1.03125,0 -1.875,-0.84375 -1.875,-1.875 z m 103.75,-2.5 c 0,-1.14584 0.60469,-1.88177 1.34375,-1.63541 0.73906,0.24635 1.34375,0.98228 1.34375,1.63541 0,0.65313 -0.60469,1.38906 -1.34375,1.63541 -0.73906,0.24636 -1.34375,-0.48957 -1.34375,-1.63541 z m -112.25,-0.875 c -0.825,-0.825 -1.5,-2.8114 -1.5,-4.41422 0,-1.60284 -0.84375,-3.23802 -1.875,-3.63374 -1.03125,-0.39574 -1.875,-1.50308 -1.875,-2.46078 0,-0.95769 0.84375,-1.74126 1.875,-1.74126 1.08974,0 1.875,1.13426 1.875,2.70834 0,1.48957 0.38287,2.32545 0.85083,1.8575 1.10068,-1.10068 7.89917,5.3913 7.89917,7.54302 0,2.05467 -5.23458,2.15656 -7.25,0.14114 z m 87.32025,-0.86874 c -0.94125,-1.75873 -0.79162,-2.76387 0.58101,-3.90306 2.31855,-1.92422 5.59874,0.37528 5.59874,3.92485 0,3.12178 -4.50588,3.10588 -6.17975,-0.0217 z m 4.92975,-7.63126 c 0,-1.88269 0.65269,-2.55761 2.1875,-2.26204 1.20312,0.2317 2.1875,1.24962 2.1875,2.26204 0,1.01243 -0.98438,2.03034 -2.1875,2.26204 -1.53481,0.29557 -2.1875,-0.37935 -2.1875,-2.26204 z m 11.875,1.25 c -0.49894,-0.80731 -0.34468,-2.03033 0.34282,-2.71783 0.83334,-0.83333 1.5524,-0.76072 2.15718,0.21783 0.49894,0.80731 0.34467,2.03032 -0.34283,2.71782 -0.83333,0.83334 -1.5524,0.76073 -2.15717,-0.21782 z m -7.46403,-6.19179 c -0.79527,-1.28677 0.48603,-5.05821 1.71847,-5.05821 0.47407,0 2.80452,-5.0516 5.17876,-11.22577 4.12169,-10.71842 6.64132,-13.56472 8.26417,-9.33563 0.42592,1.10993 -0.44833,3.20769 -2.04518,4.90746 -1.57257,1.67392 -2.38988,3.61485 -1.87379,4.44989 0.54169,0.87646 -0.44822,2.57254 -2.42506,4.15502 -1.96239,1.57093 -3.5163,4.22099 -3.76684,6.42403 -0.23455,2.0625 -0.49059,4.1117 -0.56897,4.55376 -0.24438,1.37817 -3.77752,2.2686 -4.48155,1.12945 z m 12.03215,-0.74817 c 0.23753,-1.22533 1.18873,-2.47989 2.11375,-2.78792 1.07579,-0.35822 1.52625,0.24282 1.25,1.66784 -0.23752,1.22533 -1.18872,2.47989 -2.11375,2.78791 -1.07578,0.35823 -1.52625,-0.24281 -1.25,-1.66783 z m -116.01177,-1.23895 c -1.01227,-2.63793 0.67731,-4.06213 2.11747,-1.78489 1.53026,2.41969 1.49958,3.7138 -0.088,3.7138 -0.70907,0 -1.62231,-0.86801 -2.02942,-1.92891 z m 34.89499,-2.36509 c -2.91692,-1.3139 -3.82963,-2.39445 -3.26512,-3.86555 0.54311,-1.41531 1.59367,-1.78821 3.42366,-1.21524 1.45207,0.45464 4.04637,1.12765 5.76512,1.49556 1.71875,0.36793 3.85034,1.5854 4.73686,2.7055 1.41438,1.78705 1.75331,1.80759 2.76652,0.16764 0.66924,-1.08321 3.40738,-2.00791 6.51314,-2.19954 9.07569,-0.55998 9.5748,-0.74198 10.33438,-3.76837 0.5337,-2.12645 1.4753,-2.82954 3.40787,-2.54465 5.20614,0.76745 3.78278,3.52305 -3.58589,6.94221 -8.85794,4.11021 -23.563,5.2254 -30.09654,2.28244 z m 104.72165,-0.7511 c -3.75486,-1.35019 -6.98924,-2.4549 -7.1875,-2.4549 -0.19828,0 -0.36049,-1.125 -0.36049,-2.5 0,-3.37639 4.4799,-3.30746 6.30189,0.097 0.86378,1.614 2.12321,2.31552 3.32741,1.85344 1.06566,-0.40894 2.68539,-0.12288 3.59937,0.63566 0.914,0.75855 2.27359,1.00108 3.02133,0.53895 1.44544,-0.89332 5,1.43708 5,3.27805 0,1.83271 -6.48373,1.14746 -13.70201,-1.44815 z m 21.50825,0.9826 c 0.28302,-0.85937 1.87677,-1.75095 3.54167,-1.98127 1.6649,-0.23034 4.48238,-1.7947 6.26106,-3.47638 2.07492,-1.96175 3.99785,-2.76446 5.36533,-2.23971 3.23644,1.24193 1.85848,3.3377 -4.23913,6.44736 -6.08307,3.10226 -11.75248,3.7507 -10.92893,1.25 z m -40.91864,-0.91711 c -0.92194,-1.49172 0.24821,-3.77039 1.93617,-3.77039 1.52101,0 1.53087,3.38327 0.0126,4.32161 -0.64,0.39555 -1.51695,0.14749 -1.94878,-0.55122 z m -123.39818,-2.59147 c -2.3971,-1.39749 -1.66679,-4.92892 1.01932,-4.92892 1.02401,0 1.74126,1.28722 1.74126,3.125 0,3.54183 0.1039,3.47393 -2.76058,1.80392 z m 29.13286,-6.36545 c -0.75475,-2.16509 -1.33421,-5.11822 -1.28768,-6.5625 0.0776,-2.4071 0.2048,-2.36551 1.52672,0.49903 0.79316,1.71875 2.16134,3.57483 3.0404,4.12461 2.1572,1.34918 2.03823,5.87539 -0.15444,5.87539 -0.96399,0 -2.37024,-1.77144 -3.125,-3.93653 z m 101.75272,2.68653 c -0.4249,-0.6875 0.10437,-1.25 1.17622,-1.25 1.07183,0 1.94878,0.5625 1.94878,1.25 0,0.6875 -0.5293,1.25 -1.17623,1.25 -0.64692,0 -1.52387,-0.5625 -1.94877,-1.25 z m 71.99848,-2.60887 c -1.65086,-0.66024 -4.46336,-1.25689 -6.25,-1.32592 -3.79233,-0.14648 -11.37348,-3.63476 -11.37348,-5.2332 0,-0.60471 0.8224,-0.7839 1.82756,-0.39817 1.00516,0.38571 6.33066,1.93538 11.83445,3.44372 5.50378,1.50833 9.71068,3.22168 9.34866,3.80743 -0.79872,1.29236 -1.51926,1.25306 -5.3872,-0.29386 z m -204.99313,-1.03412 c -2.15583,-1.36506 -0.90626,-5.10701 1.70542,-5.10701 1.20851,0 1.91423,1.15209 1.91423,3.125 0,3.32077 -0.80726,3.7628 -3.61965,1.98201 z m 126.13879,-2.22074 c 0.0105,-0.5562 0.56441,-1.85502 1.23086,-2.88627 1.04425,-1.61586 1.21436,-1.58286 1.23086,0.23872 0.01,1.16255 -0.54336,2.46138 -1.23086,2.88628 -0.6875,0.4249 -1.24139,0.31747 -1.23086,-0.23873 z M 243.4717,320.6821 c -0.63857,-1.03322 4.63238,-7.65726 6.09312,-7.65726 0.37658,0 0.68469,0.84375 0.68469,1.875 0,1.03125 -0.4969,1.875 -1.10421,1.875 -0.60732,0 -1.3984,1.125 -1.75798,2.5 -0.6757,2.5839 -2.73173,3.32284 -3.91562,1.40726 z m 45.52781,-3.0484 c 0,-2.77646 7.33024,-9.02862 8.82865,-7.53021 0.91624,0.91624 0.31444,2.49791 -1.99435,5.24176 -3.40096,4.04181 -6.8343,5.19145 -6.8343,2.28845 z m -99.96199,-2.67136 c -0.0277,-2.68916 0.33548,-3.31401 1.34152,-2.30798 0.98868,0.98869 0.99945,2.03343 0.038,3.6875 -1.17604,2.02329 -1.3462,1.85312 -1.37953,-1.37952 z m 156.40935,0.5625 c 0,-1.71875 0.28373,-2.42187 0.63049,-1.5625 0.34676,0.85938 0.34676,2.26563 0,3.125 -0.34676,0.85938 -0.63049,0.15625 -0.63049,-1.5625 z m 27.30264,-2.5 c 0,-2.33334 0.33334,-2.66666 1.5,-1.5 1.16666,1.16666 1.16666,1.83334 0,3 -1.16666,1.16666 -1.5,0.83334 -1.5,-1.5 z m -211.23091,-1.25 c -1.02855,-2.37287 -1.05058,-12.4875 -0.0286,-13.11914 0.69272,-0.42812 1.27462,-1.72959 1.29312,-2.89214 0.0185,-1.16255 1.66804,-4.08247 3.66566,-6.48872 3.22282,-3.88208 3.73247,-4.11433 4.52352,-2.06134 0.49032,1.2725 0.33189,2.67875 -0.35206,3.12499 -1.22135,0.79687 -7.05181,14.65435 -8.23032,19.56135 -0.33023,1.375 -0.72234,2.21875 -0.87134,1.875 z m 29.98091,-2.30626 c 0,-2.9134 3.17387,-5.8083 9.0681,-8.27107 6.08506,-2.5425 11.10034,-2.5661 10.13393,-0.0476 -0.43193,1.12561 -2.31662,1.875 -4.71556,1.875 -2.92589,0 -5.13166,1.17165 -8.23647,4.375 -4.77878,4.93045 -6.25,5.41741 -6.25,2.06874 z m 46.92392,1.13541 c -1.29311,-2.09229 -8.67021,-5.18895 -14.16209,-5.94475 -3.40726,-0.46892 -5.81659,-1.58534 -6.60648,-3.06125 -1.07983,-2.01769 -0.76333,-2.32315 2.40713,-2.32315 4.32002,0 16.43752,3.72601 16.43752,5.05437 0,0.50854 1.47961,1.29597 3.28803,1.74986 2.41706,0.60663 4.03752,0.12112 6.11745,-1.83287 2.43728,-2.28971 3.18639,-2.43517 5.40512,-1.04955 3.31091,2.0677 5.31789,0.17761 2.21815,-2.08896 -2.86906,-2.0979 -1.85522,-5.91748 1.25399,-4.72435 1.34567,0.51638 1.82441,0.32615 1.30289,-0.5177 -1.31576,-2.12893 0.55715,-9.0908 2.44562,-9.0908 1.9813,0 2.327,3.22654 0.46875,4.375 -2.14266,1.32424 -1.36992,4.57769 1.25,5.26281 1.375,0.35958 2.5,1.62598 2.5,2.81424 0,2.23976 -4.90421,7.55508 -5.1246,5.55419 -0.0685,-0.62219 -0.52784,0.27501 -1.02068,1.99376 -0.70137,2.446 -1.60448,3.05003 -4.15648,2.77991 -1.79323,-0.1898 -3.61713,0.23208 -4.0531,0.9375 -0.9921,1.60525 -8.99277,1.69492 -9.97122,0.11175 z m 101.14968,-3.91231 c -0.45316,-0.73324 -0.52379,-1.63332 -0.15694,-2.00018 0.8954,-0.89539 3.33334,0.68229 3.33334,2.15711 0,1.59747 -2.15801,1.49084 -3.1764,-0.15693 z m 28.93514,-5.64408 c -1.33129,-3.46926 -0.85587,-5.48157 1.11626,-4.7248 1.03125,0.39574 1.875,2.06558 1.875,3.71078 0,3.38141 -1.84306,4.00621 -2.99126,1.01402 z m -78.95105,-0.63167 c -0.46193,-0.74741 -0.21387,-1.98492 0.55122,-2.75 1.02145,-1.02145 1.39109,-0.66036 1.39109,1.35891 0,3.01814 -0.64933,3.48319 -1.94231,1.39109 z m -26.12395,-6.04604 c -0.43964,-0.71136 -0.20932,-2.39588 0.51183,-3.74335 0.87058,-1.6267 0.89,-2.71029 0.0577,-3.22461 -2.34905,-1.45183 -1.40417,-5.62709 1.27348,-5.62709 3.4684,0 5.78342,5.31841 4.23346,9.72571 -1.23036,3.49853 -4.68072,5.12779 -6.07652,2.86934 z m -15.68374,-11.4537 c -1.71875,-1.38902 -3.9699,-3.21413 -5.00256,-4.05581 -2.77295,-2.2601 -18.20323,-7.08554 -22.65743,-7.08554 -3.00397,0 -3.6896,-0.43749 -3.09875,-1.97723 0.41731,-1.08748 0.75874,-2.21248 0.75874,-2.5 0,-0.28753 1.40625,-0.52277 3.125,-0.52277 1.71875,0 3.125,0.6004 3.125,1.33424 0,0.73382 1.03978,1.00422 2.31061,0.60087 1.27084,-0.40335 3.94272,0.11779 5.9375,1.15806 1.99479,1.04029 4.54239,1.89489 5.66133,1.89913 1.11895,0.004 2.70469,0.81529 3.52388,1.80235 0.81918,0.98706 2.99743,2.13978 4.84055,2.5616 4.29333,0.98259 8.97613,4.84658 8.97613,7.40662 0,2.73136 -3.73408,2.42192 -7.5,-0.62153 z m 105,-1.14135 c 0,-0.6875 -0.84375,-1.25 -1.875,-1.25 -1.03125,0 -1.875,-0.78357 -1.875,-1.74126 0,-2.01539 -2.66211,-3.25874 -6.97724,-3.25874 -3.67188,0 -3.7454,-0.52736 -0.52276,-3.75 2.87685,-2.87685 5.95793,-3.14902 10.77941,-0.9522 2.70044,1.2304 3.50285,1.2304 3.91299,0 0.86495,-2.59484 2.24725,-1.73003 2.52096,1.5772 0.19635,2.3725 -0.34,3.125 -2.22736,3.125 -2.57693,0 -3.42986,3.01912 -1.236,4.375 1.8892,1.16759 1.49771,3.125 -0.625,3.125 -1.03125,0 -1.875,-0.5625 -1.875,-1.25 z m -177.5,-1.705 c 0,-2.87495 9.02477,-8.06217 15.625,-8.98087 3.4375,-0.47847 7.22382,-1.72252 8.41405,-2.76456 1.75765,-1.5388 2.52058,-1.59871 4.0625,-0.31903 2.67421,2.21939 2.35797,3.76946 -0.76902,3.76946 -3.92352,0 -12.70603,2.79005 -14.60744,4.64053 -0.90745,0.88314 -3.01682,1.94879 -4.6875,2.3681 -1.67067,0.41932 -3.03759,1.26391 -3.03759,1.87688 0,0.61297 -1.125,1.11449 -2.5,1.11449 -1.375,0 -2.5,-0.76725 -2.5,-1.705 z m 81.62461,0.1425 c -0.54978,-0.85937 -2.12461,-2.18245 -3.49961,-2.94016 -2.66658,-1.46946 -4.20124,-6.74734 -1.96194,-6.74734 0.73531,0 1.33694,0.5625 1.33694,1.25 0,0.6875 0.84375,1.25 1.875,1.25 1.03125,0 1.875,0.84375 1.875,1.875 0,1.03125 1.03125,1.875 2.29166,1.875 2.94898,0 3.95637,1.05067 3.11348,3.24721 -0.83441,2.17445 -3.692,2.28254 -5.03053,0.19029 z m 34.62539,-5.35173 c 0,-1.00967 0.84375,-1.83577 1.875,-1.83577 1.03125,0 1.875,0.50232 1.875,1.11626 0,0.61395 -0.84375,1.44004 -1.875,1.83577 -1.14214,0.43828 -1.875,0.002 -1.875,-1.11626 z m 8.51562,-2.68966 c 0.90234,-0.36109 1.98047,-0.31668 2.39584,0.0987 0.41537,0.41537 -0.32292,0.71081 -1.64062,0.65653 -1.45619,-0.06 -1.75238,-0.35618 -0.75522,-0.75521 z m 32.48438,-0.64611 c 1.16666,-1.16667 1.83334,-1.16667 3,0 1.16666,1.16667 0.83334,1.5 -1.5,1.5 -2.33334,0 -2.66666,-0.33333 -1.5,-1.5 z m -27.5,-1.25 c 1.16666,-1.16667 1.83334,-1.16667 3,0 1.16666,1.16667 0.83334,1.5 -1.5,1.5 -2.33334,0 -2.66666,-0.33333 -1.5,-1.5 z m 20.25,-0.375 c 0.85586,-1.03125 1.98955,-1.875 2.51932,-1.875 0.52977,0 1.28698,0.84375 1.68272,1.875 0.52547,1.36936 -0.15393,1.875 -2.51933,1.875 -2.73722,0 -2.99782,-0.29038 -1.68271,-1.875 z m 36.25,-5.625 c 0,-0.6875 0.5625,-1.25 1.25,-1.25 0.6875,0 1.25,-0.84375 1.25,-1.875 0,-1.03125 0.84375,-1.875 1.875,-1.875 2.25034,0 2.46067,2.66433 0.375,4.75 -1.82022,1.82023 -4.75,1.97443 -4.75,0.25 z m -78.75,-18.125 c 0,-6.00672 0.01,-6.02246 3.02276,-4.86626 2.5426,0.97568 2.55021,5.98971 0.013,8.52697 -2.82729,2.82724 -3.03576,2.57583 -3.03576,-3.66071 z m 87.91051,1.75991 c 0.44295,-1.65545 0.81304,-3.71304 0.82243,-4.57241 0.0234,-2.13662 2.43618,-1.97773 3.27794,0.21585 0.37533,0.9781 -0.5749,3.03568 -2.11164,4.57242 l -2.79406,2.79406 0.80533,-3.00992 z m 2.08949,-11.09093 c 0,-4.03576 1.0621,-4.73188 3.5,-2.29398 2.1091,2.10909 1.8773,3.21012 -1,4.75 -2.24476,1.20136 -2.5,0.95061 -2.5,-2.45602 z m -123.275,-3.10912 c -0.38309,-0.99833 -0.33224,-2.40458 0.113,-3.125 1.4559,-2.35569 3.162,-1.3763 3.162,1.81514 0,3.3886 -2.14769,4.24759 -3.275,1.30986 z m 34.525,-9.48771 c 0,-4.54186 5.10507,-13.69715 7.63766,-13.69715 1.29929,0 2.36234,0.53603 2.36234,1.19118 0,1.95359 -2.8291,7.55882 -3.81514,7.55882 -0.50261,0 -1.25121,1.34421 -1.66356,2.98712 -0.96996,3.86465 -4.5213,5.40419 -4.5213,1.96003 z m 56.35881,-0.71773 c -2.93825,-3.73538 -2.8598,-5.8943 0.23601,-6.49485 1.43948,-0.27924 2.25367,0.89429 2.85897,4.12078 1.10288,5.87889 0.20417,6.56826 -3.09498,2.37407 z m 31.92342,-2.90286 c -0.9336,-5.83848 -6.81368,-19.82869 -9.50824,-22.62258 -1.04445,-1.08293 -4.26471,-4.56976 -7.15614,-7.7485 -6.00856,-6.6056 -22.97194,-15.70435 -31.38154,-16.83232 -5.66695,-0.76009 -6.34342,-1.64823 -3.22605,-4.23542 1.70329,-1.4136 2.26011,-1.32669 3.64636,0.56912 1.14277,1.56283 3.69421,2.3631 8.46161,2.65403 7.34551,0.44826 12.14358,2.42226 17.19865,7.07578 1.75553,1.61608 4.75221,3.75981 6.65928,4.76385 1.90708,1.00404 4.07563,2.97279 4.819,4.375 0.74338,1.40221 2.38731,3.2845 3.65321,4.18286 1.26589,0.89836 2.30163,2.45641 2.30163,3.46234 0,1.00593 1.5,4.20511 3.33334,7.1093 1.83332,2.90419 3.31625,6.12739 3.29537,7.16266 -0.0209,1.03528 0.49435,2.55845 1.14495,3.38483 0.65059,0.82639 0.83228,2.60717 0.40377,3.95731 -0.42852,1.35013 -0.16643,2.83345 0.58242,3.29627 0.96986,0.59941 0.94046,1.34885 -0.10225,2.60519 -2.33991,2.81943 -3.28506,2.09553 -4.12541,-3.15972 z M 252.3895,215.91352 c -0.38924,-2.0095 0.005,-4.31635 0.92182,-5.38868 0.88133,-1.03125 1.96993,-3.42188 2.41911,-5.3125 0.46662,-1.96395 1.66758,-3.4375 2.80163,-3.4375 1.11981,0 1.68647,0.681 1.30016,1.5625 -0.37662,0.85937 -2.05217,4.83116 -3.72345,8.82618 -2.84075,6.79052 -3.08302,7.0348 -3.71927,3.75 z m 76.97632,-6.16974 c -4.92424,-2.06639 -7.96825,-6.71894 -4.396,-6.71894 1.26956,0 3.51583,1.125 4.99173,2.5 1.47588,1.375 3.26945,2.5 3.9857,2.5 1.49707,0 1.7627,2.09494 0.36476,2.8768 -0.51563,0.28839 -2.74141,-0.23265 -4.94619,-1.15786 z m -29.11631,-5.32315 c 0,-0.60732 1.26562,-1.44339 2.8125,-1.85793 4.37821,-1.17332 5.11906,-0.93902 3.4375,1.08714 -1.6769,2.02053 -6.25,2.58452 -6.25,0.77079 z m 15.87655,0.31409 c -1.75773,-1.75772 -0.8022,-2.95988 2.35261,-2.95988 2.02748,0 3.03556,0.58147 2.70893,1.5625 -0.6017,1.80711 -3.77558,2.68335 -5.06154,1.39738 z m -56.71988,-6.20307 c -0.57497,-1.49837 0.0234,-2.77744 1.87436,-4.00641 1.49543,-0.99293 2.71897,-2.45381 2.71897,-3.24641 0,-1.40627 10.53125,-12.00399 11.9287,-12.00399 0.38716,0 2.77341,-1.40625 5.30279,-3.125 2.52936,-1.71875 5.7339,-3.12847 7.12117,-3.1327 1.38729,-0.004 4.17285,-0.8684 6.19015,-1.92036 2.01729,-1.05196 4.33938,-1.65495 5.16018,-1.33998 0.82081,0.31497 2.09957,-0.0345 2.84171,-0.77666 0.96579,-0.96579 1.89738,-0.89452 3.27733,0.25073 3.0571,2.53717 2.31124,3.45263 -3.52614,4.328 -8.33873,1.25047 -21.86968,8.34026 -29.85839,15.64484 -3.95312,3.61459 -7.24357,6.09367 -7.3121,5.50906 -0.0685,-0.58461 -0.50593,0.30162 -0.97197,1.9694 -1.05522,3.77605 -3.62347,4.77672 -4.74675,1.84948 z"
         id="path4157"
         inkscape:connector-curvature="0" />
      <path
         style="fill:#fefefc"
         d="m 304.62451,468.02484 c -0.4249,-0.6875 0.41885,-1.25 1.875,-1.25 1.45615,0 2.2999,0.5625 1.875,1.25 -0.4249,0.6875 -1.26865,1.25 -1.875,1.25 -0.60635,0 -1.4501,-0.5625 -1.875,-1.25 z m 13.75,0 c -0.4249,-0.6875 0.41885,-1.25 1.875,-1.25 1.45615,0 2.2999,0.5625 1.875,1.25 -0.4249,0.6875 -1.26865,1.25 -1.875,1.25 -0.60635,0 -1.4501,-0.5625 -1.875,-1.25 z m -19.60938,-2.10389 c 0.90234,-0.36108 1.98047,-0.31668 2.39584,0.0986 0.41537,0.41536 -0.32292,0.7108 -1.64062,0.65652 -1.45619,-0.06 -1.75238,-0.35617 -0.75522,-0.7552 z m 27.5,0 c 0.90234,-0.36108 1.98047,-0.31668 2.39584,0.0986 0.41537,0.41536 -0.32292,0.7108 -1.64062,0.65652 -1.45619,-0.06 -1.75238,-0.35617 -0.75522,-0.7552 z m -42.96225,-3.41891 c -1.33343,-0.97504 -2.02148,-2.17575 -1.52898,-2.66825 1.09651,-1.09653 8.47561,1.81372 8.47561,3.3427 0,1.70691 -4.25487,1.2938 -6.94663,-0.67445 z m 53.19663,0.75431 c 0,-1.31161 8.84402,-5.55415 9.73042,-4.66775 1.3126,1.3126 -3.91706,5.68624 -6.79916,5.68624 -1.61219,0 -2.93126,-0.45831 -2.93126,-1.01849 z m 17.5,-11.19612 c 0,-1.79426 4.91162,-5.79043 5.90095,-4.8011 0.4871,0.48708 0.28273,1.84301 -0.45414,3.01316 -1.46386,2.3246 -5.44681,3.63202 -5.44681,1.78794 z m -85.6764,-1.61855 c -0.45316,-0.73324 -0.52379,-1.63331 -0.15694,-2.00018 0.8954,-0.89538 3.33334,0.68229 3.33334,2.15711 0,1.59747 -2.15801,1.49084 -3.1764,-0.15693 z m -6.8236,-8.66684 c 0,-0.6875 0.5625,-1.25 1.25,-1.25 0.6875,0 1.25,0.5625 1.25,1.25 0,0.6875 -0.5625,1.25 -1.25,1.25 -0.6875,0 -1.25,-0.5625 -1.25,-1.25 z m 103.95834,-3.4792 c 0.22916,-0.53855 1.54166,-3.6302 2.91666,-6.87031 1.375,-3.24012 2.92187,-5.89323 3.4375,-5.8958 1.26107,-0.006 1.18315,2.05124 -0.178,4.69977 -0.61353,1.1938 -1.72646,3.71742 -2.4732,5.60804 -0.74674,1.89063 -1.97914,3.4375 -2.73866,3.4375 -0.75954,0 -1.19348,-0.44064 -0.9643,-0.9792 z m -110.20834,-7.1458 c 0,-1.03125 0.5625,-1.875 1.25,-1.875 0.6875,0 1.25,0.84375 1.25,1.875 0,1.03125 -0.5625,1.875 -1.25,1.875 -0.6875,0 -1.25,-0.84375 -1.25,-1.875 z m -2.46502,-7.40801 c -1.57948,-4.15433 -1.64976,-6.96699 -0.17409,-6.96699 1.25837,0 3.16106,8.64473 2.12969,9.67609 -0.36885,0.36885 -1.24887,-0.85025 -1.9556,-2.7091 z m 89.98416,-22.20572 c -0.0112,-11.74891 0.4821,-19.92351 1.23086,-20.38627 1.65105,-1.0204 1.65105,35.57019 0,38.125 -0.81087,1.25474 -1.21805,-4.61335 -1.23086,-17.73873 z m 29.98086,16.48873 c 0,-2.33334 0.33334,-2.66666 1.5,-1.5 1.16666,1.16666 1.16666,1.83334 0,3 -1.16666,1.16666 -1.5,0.83334 -1.5,-1.5 z m -121.867,-6.22477 c -0.432,-1.36113 -0.20576,-3.47051 0.50276,-4.6875 1.05118,-1.80557 1.29521,-1.35018 1.32623,2.47477 0.042,5.18112 -0.62914,5.99309 -1.82899,2.21273 z m 121.867,-10.02523 c 0,-2.33334 0.33334,-2.66666 1.5,-1.5 1.16666,1.16666 1.16666,1.83334 0,3 -1.16666,1.16666 -1.5,0.83334 -1.5,-1.5 z M 207.35888,370.96755 c -1.63012,-1.63012 -0.85186,-2.94271 1.7448,-2.94271 1.45467,0 2.38576,0.65521 2.10937,1.48438 -0.60889,1.82667 -2.69608,2.61642 -3.85417,1.45833 z m 150.39063,-0.44271 c 0,-0.6875 0.5625,-1.25 1.25,-1.25 0.6875,0 1.25,0.5625 1.25,1.25 0,0.6875 -0.5625,1.25 -1.25,1.25 -0.6875,0 -1.25,-0.5625 -1.25,-1.25 z m -45.625,-1.25 c 0.4249,-0.6875 1.0206,-1.25 1.32377,-1.25 0.30318,0 0.55123,0.5625 0.55123,1.25 0,0.6875 -0.5957,1.25 -1.32378,1.25 -0.72807,0 -0.97612,-0.5625 -0.55122,-1.25 z m 21.875,0 c 0,-0.6875 0.5625,-1.25 1.25,-1.25 0.6875,0 1.25,0.5625 1.25,1.25 0,0.6875 -0.5625,1.25 -1.25,1.25 -0.6875,0 -1.25,-0.5625 -1.25,-1.25 z m 10,-2.5268 c 0,-1.5755 5.96797,-4.4219 7.0347,-3.35516 0.42579,0.42577 0.44106,1.64215 0.034,2.70305 -0.81436,2.12207 -7.0687,2.69906 -7.0687,0.65211 z m 15,-9.27733 c 0,-2.31235 5.43851,-6.25534 6.05927,-4.39306 0.49187,1.47559 -3.31991,6.19719 -5.00301,6.19719 -0.58094,0 -1.05626,-0.81185 -1.05626,-1.80412 z M 172.33284,354.6915 c -1.55076,-1.55075 -0.84539,-4.09282 0.94502,-3.40579 2.38029,0.91342 3.56944,4.23913 1.51575,4.23913 -0.89509,0 -2.00243,-0.375 -2.46077,-0.83334 z m 191.79015,-26.77553 c -1.65086,-0.66024 -4.46336,-1.25689 -6.25,-1.32592 -3.79233,-0.14648 -11.37348,-3.63476 -11.37348,-5.2332 0,-0.60471 0.8224,-0.7839 1.82756,-0.39817 1.00516,0.38571 6.33066,1.93538 11.83445,3.44372 5.50378,1.50833 9.71068,3.22168 9.34866,3.80743 -0.79872,1.29236 -1.51926,1.25306 -5.3872,-0.29386 z m -78.85434,-3.25486 c 0.0105,-0.5562 0.56441,-1.85502 1.23086,-2.88627 1.04425,-1.61586 1.21436,-1.58286 1.23086,0.23872 0.01,1.16255 -0.54336,2.46138 -1.23086,2.88628 -0.6875,0.4249 -1.24139,0.31747 -1.23086,-0.23873 z m 3.73086,-7.02741 c 0,-2.77646 7.33024,-9.02862 8.82865,-7.53021 0.91624,0.91624 0.31444,2.49791 -1.99435,5.24176 -3.40096,4.04181 -6.8343,5.19145 -6.8343,2.28845 z m 56.44736,-2.10886 c 0,-1.71875 0.28373,-2.42187 0.63049,-1.5625 0.34676,0.85938 0.34676,2.26563 0,3.125 -0.34676,0.85938 -0.63049,0.15625 -0.63049,-1.5625 z m 27.30264,-2.5 c 0,-2.33334 0.33334,-2.66666 1.5,-1.5 1.16666,1.16666 1.16666,1.83334 0,3 -1.16666,1.16666 -1.5,0.83334 -1.5,-1.5 z m -126.875,-5 c 0.4249,-0.6875 1.33504,-1.25 2.02254,-1.25 0.6875,0 0.90236,0.5625 0.47746,1.25 -0.4249,0.6875 -1.33504,1.25 -2.02254,1.25 -0.6875,0 -0.90236,-0.5625 -0.47746,-1.25 z m 93.6986,-1.33316 c -0.45316,-0.73324 -0.52379,-1.63332 -0.15694,-2.00018 0.8954,-0.89539 3.33334,0.68229 3.33334,2.15711 0,1.59747 -2.15801,1.49084 -3.1764,-0.15693 z m 28.93514,-5.64408 c -1.33129,-3.46926 -0.85587,-5.48157 1.11626,-4.7248 1.03125,0.39574 1.875,2.06558 1.875,3.71078 0,3.38141 -1.84306,4.00621 -2.99126,1.01402 z m -111.73662,-0.71588 c 0.30803,-0.92503 1.56259,-1.87623 2.78792,-2.11375 1.42502,-0.27625 2.02606,0.17421 1.66783,1.25 -0.30802,0.92502 -1.56258,1.87622 -2.78791,2.11375 -1.42502,0.27625 -2.02606,-0.17422 -1.66784,-1.25 z m 32.78557,0.0842 c -0.46193,-0.74742 -0.21387,-1.98492 0.55122,-2.75 1.02145,-1.02149 1.39109,-0.6604 1.39109,1.35887 0,3.01814 -0.64933,3.48319 -1.94231,1.39109 z m -24.30769,-8.64113 c 0,-0.6875 0.5957,-1.25 1.32377,-1.25 0.72808,0 0.97613,0.5625 0.55123,1.25 -0.4249,0.6875 -1.0206,1.25 -1.32378,1.25 -0.30317,0 -0.55122,-0.5625 -0.55122,-1.25 z m -1.25,-6.25 c 0,-0.6875 0.5293,-1.25 1.17622,-1.25 0.64693,0 1.52388,0.5625 1.94878,1.25 0.4249,0.6875 -0.10438,1.25 -1.17623,1.25 -1.07182,0 -1.94877,-0.5625 -1.94877,-1.25 z m 88.75,-3.75 c 0,-0.6875 -0.84375,-1.25 -1.875,-1.25 -1.03125,0 -1.875,-0.84375 -1.875,-1.875 0,-2.57633 2.92835,-2.35477 5.43126,0.41093 2.56486,2.83414 2.62009,3.96407 0.19374,3.96407 -1.03125,0 -1.875,-0.5625 -1.875,-1.25 z m -169.76563,-6.32812 c 0.30079,-0.90235 1.28516,-1.88672 2.1875,-2.1875 0.9375,-0.3125 1.40625,0.15625 1.09375,1.09375 -0.30078,0.90234 -1.28515,1.88671 -2.1875,2.1875 -0.9375,0.3125 -1.40625,-0.15625 -1.09375,-1.09375 z m 108.51563,-0.58611 c 0,-1.00967 0.84375,-1.83577 1.875,-1.83577 1.03125,0 1.875,0.50232 1.875,1.11626 0,0.61395 -0.84375,1.44004 -1.875,1.83577 -1.14214,0.43828 -1.875,0.002 -1.875,-1.11626 z m 47.5,-0.45203 c 0,-0.61395 0.88975,-1.4577 1.97724,-1.875 2.79382,-1.0721 3.02276,-0.98756 3.02276,1.11626 0,1.04167 -1.11111,1.875 -2.5,1.875 -1.375,0 -2.5,-0.50232 -2.5,-1.11626 z m 8.4108,-0.29872 c -2.58693,-1.44772 -2.84856,-3.58502 -0.43885,-3.58502 2.14335,0 5.01781,3.29977 3.62455,4.16085 -0.56369,0.34838 -1.99725,0.0893 -3.1857,-0.57583 z m -47.39518,-1.93891 c 0.90234,-0.36109 1.98047,-0.31668 2.39584,0.0987 0.41537,0.41537 -0.32292,0.71081 -1.64062,0.65653 -1.45619,-0.06 -1.75238,-0.35618 -0.75522,-0.75521 z m 32.48438,-0.64611 c 1.16666,-1.16667 1.83334,-1.16667 3,0 1.16666,1.16667 0.83334,1.5 -1.5,1.5 -2.33334,0 -2.66666,-0.33333 -1.5,-1.5 z m -27.5,-1.25 c 1.16666,-1.16667 1.83334,-1.16667 3,0 1.16666,1.16667 0.83334,1.5 -1.5,1.5 -2.33334,0 -2.66666,-0.33333 -1.5,-1.5 z m 20.25,-0.375 c 0.85586,-1.03125 1.98955,-1.875 2.51932,-1.875 0.52977,0 1.28698,0.84375 1.68272,1.875 0.52547,1.36936 -0.15393,1.875 -2.51933,1.875 -2.73722,0 -2.99782,-0.29038 -1.68271,-1.875 z m -106.25,-0.625 c 0,-0.6875 0.84375,-1.25 1.875,-1.25 1.03125,0 1.875,0.5625 1.875,1.25 0,0.6875 -0.84375,1.25 -1.875,1.25 -1.03125,0 -1.875,-0.5625 -1.875,-1.25 z m 65,-24.375 c 0,-1.03125 0.5625,-1.875 1.25,-1.875 0.6875,0 1.25,0.84375 1.25,1.875 0,1.03125 -0.5625,1.875 -1.25,1.875 -0.6875,0 -1.25,-0.84375 -1.25,-1.875 z m 86.25,-36.35417 c 0,-2.2074 2.69095,-1.82298 3.46354,0.49479 0.27213,0.81641 -0.39583,1.48438 -1.48438,1.48438 -1.08854,0 -1.97916,-0.89063 -1.97916,-1.97917 z m -7.5,-13.75 c 0,-1.08854 0.66796,-1.75651 1.48437,-1.48437 2.31778,0.77259 2.7022,3.46354 0.49479,3.46354 -1.08854,0 -1.97916,-0.89063 -1.97916,-1.97917 z m -96.25,-5.294 c 0,-1.5107 2.3715,-3.272 3.23837,-2.40512 0.31463,0.31462 -0.2853,1.28357 -1.33316,2.15322 -1.18799,0.98594 -1.90521,1.08076 -1.90521,0.2519 z m 91.22492,-0.88204 c -2.41546,-2.91046 -0.69193,-3.45894 1.89314,-0.60245 1.24818,1.37921 1.6886,2.50766 0.97873,2.50766 -0.70988,0 -2.00222,-0.85734 -2.87187,-1.90521 z m -84.10761,-5.14414 c -0.99866,-0.99866 0.13024,-2.95065 1.70646,-2.95065 0.64693,0 1.17623,0.84375 1.17623,1.875 0,1.93301 -1.47495,2.48338 -2.88269,1.07565 z m 7.88269,-5.43347 c 0,-1.09325 3.93427,-3.76718 5.54282,-3.76718 1.90113,0 0.34842,2.26218 -2.41782,3.52256 -1.78541,0.81349 -3.125,0.91835 -3.125,0.24462 z m 59.6875,-0.1173 c -1.20313,-0.70076 -2.1875,-1.80865 -2.1875,-2.46199 0,-2.05491 3.26771,-1.29267 5.625,1.31211 2.52993,2.79554 0.53415,3.46315 -3.4375,1.14988 z"
         id="path4155"
         inkscape:connector-curvature="0" />
      <path
         style="fill:#fefefb"
         d="m 304.62451,468.02484 c -0.4249,-0.6875 0.41885,-1.25 1.875,-1.25 1.45615,0 2.2999,0.5625 1.875,1.25 -0.4249,0.6875 -1.26865,1.25 -1.875,1.25 -0.60635,0 -1.4501,-0.5625 -1.875,-1.25 z m 13.75,0 c -0.4249,-0.6875 0.41885,-1.25 1.875,-1.25 1.45615,0 2.2999,0.5625 1.875,1.25 -0.4249,0.6875 -1.26865,1.25 -1.875,1.25 -0.60635,0 -1.4501,-0.5625 -1.875,-1.25 z m -19.60938,-2.10389 c 0.90234,-0.36108 1.98047,-0.31668 2.39584,0.0986 0.41537,0.41536 -0.32292,0.7108 -1.64062,0.65652 -1.45619,-0.06 -1.75238,-0.35617 -0.75522,-0.7552 z m 27.5,0 c 0.90234,-0.36108 1.98047,-0.31668 2.39584,0.0986 0.41537,0.41536 -0.32292,0.7108 -1.64062,0.65652 -1.45619,-0.06 -1.75238,-0.35617 -0.75522,-0.7552 z m -42.96225,-3.41891 c -1.33343,-0.97504 -2.02148,-2.17575 -1.52898,-2.66825 1.09651,-1.09653 8.47561,1.81372 8.47561,3.3427 0,1.70691 -4.25487,1.2938 -6.94663,-0.67445 z m 53.19663,0.75431 c 0,-1.31161 8.84402,-5.55415 9.73042,-4.66775 1.3126,1.3126 -3.91706,5.68624 -6.79916,5.68624 -1.61219,0 -2.93126,-0.45831 -2.93126,-1.01849 z m 17.5,-11.19612 c 0,-1.79426 4.91162,-5.79043 5.90095,-4.8011 0.4871,0.48708 0.28273,1.84301 -0.45414,3.01316 -1.46386,2.3246 -5.44681,3.63202 -5.44681,1.78794 z m -85.6764,-1.61855 c -0.45316,-0.73324 -0.52379,-1.63331 -0.15694,-2.00018 0.8954,-0.89538 3.33334,0.68229 3.33334,2.15711 0,1.59747 -2.15801,1.49084 -3.1764,-0.15693 z m -6.8236,-8.66684 c 0,-0.6875 0.5625,-1.25 1.25,-1.25 0.6875,0 1.25,0.5625 1.25,1.25 0,0.6875 -0.5625,1.25 -1.25,1.25 -0.6875,0 -1.25,-0.5625 -1.25,-1.25 z m 103.95834,-3.4792 c 0.22916,-0.53855 1.54166,-3.6302 2.91666,-6.87031 1.375,-3.24012 2.92187,-5.89323 3.4375,-5.8958 1.26107,-0.006 1.18315,2.05124 -0.178,4.69977 -0.61353,1.1938 -1.72646,3.71742 -2.4732,5.60804 -0.74674,1.89063 -1.97914,3.4375 -2.73866,3.4375 -0.75954,0 -1.19348,-0.44064 -0.9643,-0.9792 z m -110.20834,-7.1458 c 0,-1.03125 0.5625,-1.875 1.25,-1.875 0.6875,0 1.25,0.84375 1.25,1.875 0,1.03125 -0.5625,1.875 -1.25,1.875 -0.6875,0 -1.25,-0.84375 -1.25,-1.875 z m -2.46502,-7.40801 c -1.57948,-4.15433 -1.64976,-6.96699 -0.17409,-6.96699 1.25837,0 3.16106,8.64473 2.12969,9.67609 -0.36885,0.36885 -1.24887,-0.85025 -1.9556,-2.7091 z m 89.98416,-22.20572 c -0.0112,-11.74891 0.4821,-19.92351 1.23086,-20.38627 1.65105,-1.0204 1.65105,35.57019 0,38.125 -0.81087,1.25474 -1.21805,-4.61335 -1.23086,-17.73873 z m 29.98086,16.48873 c 0,-2.33334 0.33334,-2.66666 1.5,-1.5 1.16666,1.16666 1.16666,1.83334 0,3 -1.16666,1.16666 -1.5,0.83334 -1.5,-1.5 z m -121.867,-6.22477 c -0.432,-1.36113 -0.20576,-3.47051 0.50276,-4.6875 1.05118,-1.80557 1.29521,-1.35018 1.32623,2.47477 0.042,5.18112 -0.62914,5.99309 -1.82899,2.21273 z m 121.867,-10.02523 c 0,-2.33334 0.33334,-2.66666 1.5,-1.5 1.16666,1.16666 1.16666,1.83334 0,3 -1.16666,1.16666 -1.5,0.83334 -1.5,-1.5 z m -15,-31.25 c 0,-0.6875 0.5625,-1.25 1.25,-1.25 0.6875,0 1.25,0.5625 1.25,1.25 0,0.6875 -0.5625,1.25 -1.25,1.25 -0.6875,0 -1.25,-0.5625 -1.25,-1.25 z m -10.625,-5 c 0.4249,-0.6875 1.33504,-1.25 2.02254,-1.25 0.6875,0 0.90236,0.5625 0.47746,1.25 -0.4249,0.6875 -1.33504,1.25 -2.02254,1.25 -0.6875,0 -0.90236,-0.5625 -0.47746,-1.25 z m 13.125,-8.52318 c 0,-1.51068 2.3715,-3.27198 3.23837,-2.40512 0.31463,0.31462 -0.2853,1.28357 -1.33316,2.15322 -1.18799,0.98594 -1.90521,1.08078 -1.90521,0.2519 z m 3.87348,-29.08569 c -1.65086,-0.66024 -4.46336,-1.25689 -6.25,-1.32592 -3.79233,-0.14648 -11.37348,-3.63476 -11.37348,-5.2332 0,-0.60471 0.8224,-0.7839 1.82756,-0.39817 1.00516,0.38571 6.33066,1.93538 11.83445,3.44372 5.50378,1.50833 9.71068,3.22168 9.34866,3.80743 -0.79872,1.29236 -1.51926,1.25306 -5.3872,-0.29386 z m -78.85434,-3.25486 c 0.0105,-0.5562 0.56441,-1.85502 1.23086,-2.88627 1.04425,-1.61586 1.21436,-1.58286 1.23086,0.23872 0.01,1.16255 -0.54336,2.46138 -1.23086,2.88628 -0.6875,0.4249 -1.24139,0.31747 -1.23086,-0.23873 z m 3.73086,-7.02741 c 0,-2.77646 7.33024,-9.02862 8.82865,-7.53021 0.91624,0.91624 0.31444,2.49791 -1.99435,5.24176 -3.40096,4.04181 -6.8343,5.19145 -6.8343,2.28845 z m 56.44736,-2.10886 c 0,-1.71875 0.28373,-2.42187 0.63049,-1.5625 0.34676,0.85938 0.34676,2.26563 0,3.125 -0.34676,0.85938 -0.63049,0.15625 -0.63049,-1.5625 z m 27.30264,-2.5 c 0,-2.33334 0.33334,-2.66666 1.5,-1.5 1.16666,1.16666 1.16666,1.83334 0,3 -1.16666,1.16666 -1.5,0.83334 -1.5,-1.5 z m -33.1764,-6.33316 c -0.45316,-0.73324 -0.52379,-1.63332 -0.15694,-2.00018 0.8954,-0.89539 3.33334,0.68229 3.33334,2.15711 0,1.59747 -2.15801,1.49084 -3.1764,-0.15693 z m 28.93514,-5.64408 c -1.33129,-3.46926 -0.85587,-5.48157 1.11626,-4.7248 1.03125,0.39574 1.875,2.06558 1.875,3.71078 0,3.38141 -1.84306,4.00621 -2.99126,1.01402 z m -78.95105,-0.63167 c -0.46193,-0.74741 -0.21387,-1.98492 0.55122,-2.75 1.02145,-1.02145 1.39109,-0.66036 1.39109,1.35891 0,3.01814 -0.64933,3.48319 -1.94231,1.39109 z m 63.19231,-18.64109 c 0,-0.6875 -0.84375,-1.25 -1.875,-1.25 -1.03125,0 -1.875,-0.84375 -1.875,-1.875 0,-2.57633 2.92835,-2.35477 5.43126,0.41093 2.56486,2.83414 2.62009,3.96407 0.19374,3.96407 -1.03125,0 -1.875,-0.5625 -1.875,-1.25 z m -61.25,-6.91423 c 0,-1.00967 0.84375,-1.83577 1.875,-1.83577 1.03125,0 1.875,0.50232 1.875,1.11626 0,0.61395 -0.84375,1.44004 -1.875,1.83577 -1.14214,0.43828 -1.875,0.002 -1.875,-1.11626 z m 47.5,-0.45203 c 0,-0.61395 0.88975,-1.4577 1.97724,-1.875 2.79382,-1.0721 3.02276,-0.98756 3.02276,1.11626 0,1.04167 -1.11111,1.875 -2.5,1.875 -1.375,0 -2.5,-0.50232 -2.5,-1.11626 z m -38.98438,-2.23763 c 0.90234,-0.36109 1.98047,-0.31668 2.39584,0.0987 0.41537,0.41537 -0.32292,0.71081 -1.64062,0.65653 -1.45619,-0.06 -1.75238,-0.35618 -0.75522,-0.75521 z m 32.48438,-0.64611 c 1.16666,-1.16667 1.83334,-1.16667 3,0 1.16666,1.16667 0.83334,1.5 -1.5,1.5 -2.33334,0 -2.66666,-0.33333 -1.5,-1.5 z m -27.5,-1.25 c 1.16666,-1.16667 1.83334,-1.16667 3,0 1.16666,1.16667 0.83334,1.5 -1.5,1.5 -2.33334,0 -2.66666,-0.33333 -1.5,-1.5 z m 20.25,-0.375 c 0.85586,-1.03125 1.98955,-1.875 2.51932,-1.875 0.52977,0 1.28698,0.84375 1.68272,1.875 0.52547,1.36936 -0.15393,1.875 -2.51933,1.875 -2.73722,0 -2.99782,-0.29038 -1.68271,-1.875 z"
         id="path4153"
         inkscape:connector-curvature="0" />
      <path
         style="fill:#fdfdfd"
         d="m 304.62451,468.02484 c -0.4249,-0.6875 0.41885,-1.25 1.875,-1.25 1.45615,0 2.2999,0.5625 1.875,1.25 -0.4249,0.6875 -1.26865,1.25 -1.875,1.25 -0.60635,0 -1.4501,-0.5625 -1.875,-1.25 z m 13.75,0 c -0.4249,-0.6875 0.41885,-1.25 1.875,-1.25 1.45615,0 2.2999,0.5625 1.875,1.25 -0.4249,0.6875 -1.26865,1.25 -1.875,1.25 -0.60635,0 -1.4501,-0.5625 -1.875,-1.25 z m -19.60938,-2.10389 c 0.90234,-0.36108 1.98047,-0.31668 2.39584,0.0986 0.41537,0.41536 -0.32292,0.7108 -1.64062,0.65652 -1.45619,-0.06 -1.75238,-0.35617 -0.75522,-0.7552 z m 27.5,0 c 0.90234,-0.36108 1.98047,-0.31668 2.39584,0.0986 0.41537,0.41536 -0.32292,0.7108 -1.64062,0.65652 -1.45619,-0.06 -1.75238,-0.35617 -0.75522,-0.7552 z m -42.96225,-3.41891 c -1.33343,-0.97504 -2.02148,-2.17575 -1.52898,-2.66825 1.09651,-1.09653 8.47561,1.81372 8.47561,3.3427 0,1.70691 -4.25487,1.2938 -6.94663,-0.67445 z m 53.19663,0.75431 c 0,-1.31161 8.84402,-5.55415 9.73042,-4.66775 1.3126,1.3126 -3.91706,5.68624 -6.79916,5.68624 -1.61219,0 -2.93126,-0.45831 -2.93126,-1.01849 z m 17.5,-11.19612 c 0,-1.79426 4.91162,-5.79043 5.90095,-4.8011 0.4871,0.48708 0.28273,1.84301 -0.45414,3.01316 -1.46386,2.3246 -5.44681,3.63202 -5.44681,1.78794 z m -85.6764,-1.61855 c -0.45316,-0.73324 -0.52379,-1.63331 -0.15694,-2.00018 0.8954,-0.89538 3.33334,0.68229 3.33334,2.15711 0,1.59747 -2.15801,1.49084 -3.1764,-0.15693 z m -6.8236,-8.66684 c 0,-0.6875 0.5625,-1.25 1.25,-1.25 0.6875,0 1.25,0.5625 1.25,1.25 0,0.6875 -0.5625,1.25 -1.25,1.25 -0.6875,0 -1.25,-0.5625 -1.25,-1.25 z m 103.95834,-3.4792 c 0.22916,-0.53855 1.54166,-3.6302 2.91666,-6.87031 1.375,-3.24012 2.92187,-5.89323 3.4375,-5.8958 1.26107,-0.006 1.18315,2.05124 -0.178,4.69977 -0.61353,1.1938 -1.72646,3.71742 -2.4732,5.60804 -0.74674,1.89063 -1.97914,3.4375 -2.73866,3.4375 -0.75954,0 -1.19348,-0.44064 -0.9643,-0.9792 z m -110.20834,-7.1458 c 0,-1.03125 0.5625,-1.875 1.25,-1.875 0.6875,0 1.25,0.84375 1.25,1.875 0,1.03125 -0.5625,1.875 -1.25,1.875 -0.6875,0 -1.25,-0.84375 -1.25,-1.875 z m -2.46502,-7.40801 c -1.57948,-4.15433 -1.64976,-6.96699 -0.17409,-6.96699 1.25837,0 3.16106,8.64473 2.12969,9.67609 -0.36885,0.36885 -1.24887,-0.85025 -1.9556,-2.7091 z m 89.98416,-22.20572 c -0.0112,-11.74891 0.4821,-19.92351 1.23086,-20.38627 1.65105,-1.0204 1.65105,35.57019 0,38.125 -0.81087,1.25474 -1.21805,-4.61335 -1.23086,-17.73873 z m 29.98086,16.48873 c 0,-2.33334 0.33334,-2.66666 1.5,-1.5 1.16666,1.16666 1.16666,1.83334 0,3 -1.16666,1.16666 -1.5,0.83334 -1.5,-1.5 z m -121.867,-6.22477 c -0.432,-1.36113 -0.20576,-3.47051 0.50276,-4.6875 1.05118,-1.80557 1.29521,-1.35018 1.32623,2.47477 0.042,5.18112 -0.62914,5.99309 -1.82899,2.21273 z m 121.867,-10.02523 c 0,-2.33334 0.33334,-2.66666 1.5,-1.5 1.16666,1.16666 1.16666,1.83334 0,3 -1.16666,1.16666 -1.5,0.83334 -1.5,-1.5 z m -15,-31.25 c 0,-0.6875 0.5625,-1.25 1.25,-1.25 0.6875,0 1.25,0.5625 1.25,1.25 0,0.6875 -0.5625,1.25 -1.25,1.25 -0.6875,0 -1.25,-0.5625 -1.25,-1.25 z m 6.37348,-42.60887 c -1.65086,-0.66024 -4.46336,-1.25689 -6.25,-1.32592 -3.79233,-0.14648 -11.37348,-3.63476 -11.37348,-5.2332 0,-0.60471 0.8224,-0.7839 1.82756,-0.39817 1.00516,0.38571 6.33066,1.93538 11.83445,3.44372 5.50378,1.50833 9.71068,3.22168 9.34866,3.80743 -0.79872,1.29236 -1.51926,1.25306 -5.3872,-0.29386 z m -78.85434,-3.25486 c 0.0105,-0.5562 0.56441,-1.85502 1.23086,-2.88627 1.04425,-1.61586 1.21436,-1.58286 1.23086,0.23872 0.01,1.16255 -0.54336,2.46138 -1.23086,2.88628 -0.6875,0.4249 -1.24139,0.31747 -1.23086,-0.23873 z m 3.73086,-7.02741 c 0,-2.77646 7.33024,-9.02862 8.82865,-7.53021 0.91624,0.91624 0.31444,2.49791 -1.99435,5.24176 -3.40096,4.04181 -6.8343,5.19145 -6.8343,2.28845 z m 56.44736,-2.10886 c 0,-1.71875 0.28373,-2.42187 0.63049,-1.5625 0.34676,0.85938 0.34676,2.26563 0,3.125 -0.34676,0.85938 -0.63049,0.15625 -0.63049,-1.5625 z m 27.30264,-2.5 c 0,-2.33334 0.33334,-2.66666 1.5,-1.5 1.16666,1.16666 1.16666,1.83334 0,3 -1.16666,1.16666 -1.5,0.83334 -1.5,-1.5 z m -33.1764,-6.33316 c -0.45316,-0.73324 -0.52379,-1.63332 -0.15694,-2.00018 0.8954,-0.89539 3.33334,0.68229 3.33334,2.15711 0,1.59747 -2.15801,1.49084 -3.1764,-0.15693 z m 28.93514,-5.64408 c -1.33129,-3.46926 -0.85587,-5.48157 1.11626,-4.7248 1.03125,0.39574 1.875,2.06558 1.875,3.71078 0,3.38141 -1.84306,4.00621 -2.99126,1.01402 z m -78.95105,-0.63167 c -0.46193,-0.74741 -0.21387,-1.98492 0.55122,-2.75 1.02145,-1.02145 1.39109,-0.66036 1.39109,1.35891 0,3.01814 -0.64933,3.48319 -1.94231,1.39109 z m 63.19231,-18.64109 c 0,-0.6875 -0.84375,-1.25 -1.875,-1.25 -1.03125,0 -1.875,-0.84375 -1.875,-1.875 0,-2.57633 2.92835,-2.35477 5.43126,0.41093 2.56486,2.83414 2.62009,3.96407 0.19374,3.96407 -1.03125,0 -1.875,-0.5625 -1.875,-1.25 z m -61.25,-6.91423 c 0,-1.00967 0.84375,-1.83577 1.875,-1.83577 1.03125,0 1.875,0.50232 1.875,1.11626 0,0.61395 -0.84375,1.44004 -1.875,1.83577 -1.14214,0.43828 -1.875,0.002 -1.875,-1.11626 z m 47.5,-0.45203 c 0,-0.61395 0.88975,-1.4577 1.97724,-1.875 2.79382,-1.0721 3.02276,-0.98756 3.02276,1.11626 0,1.04167 -1.11111,1.875 -2.5,1.875 -1.375,0 -2.5,-0.50232 -2.5,-1.11626 z m -38.98438,-2.23763 c 0.90234,-0.36109 1.98047,-0.31668 2.39584,0.0987 0.41537,0.41537 -0.32292,0.71081 -1.64062,0.65653 -1.45619,-0.06 -1.75238,-0.35618 -0.75522,-0.75521 z m 32.48438,-0.64611 c 1.16666,-1.16667 1.83334,-1.16667 3,0 1.16666,1.16667 0.83334,1.5 -1.5,1.5 -2.33334,0 -2.66666,-0.33333 -1.5,-1.5 z m -27.5,-1.25 c 1.16666,-1.16667 1.83334,-1.16667 3,0 1.16666,1.16667 0.83334,1.5 -1.5,1.5 -2.33334,0 -2.66666,-0.33333 -1.5,-1.5 z m 20.25,-0.375 c 0.85586,-1.03125 1.98955,-1.875 2.51932,-1.875 0.52977,0 1.28698,0.84375 1.68272,1.875 0.52547,1.36936 -0.15393,1.875 -2.51933,1.875 -2.73722,0 -2.99782,-0.29038 -1.68271,-1.875 z"
         id="path4151"
         inkscape:connector-curvature="0" />
    </g>
    <path
       style="fill:#000000"
       d=""
       id="path4147"
       inkscape:connector-curvature="0" />
  </g>
</svg>
